<svg width="19" height="18" viewBox="0 0 19 18" fill="none" xmlns="http://www.w3.org/2000/svg">
<path d="M1 1.85057V6.95192H5.63636" stroke="white" stroke-width="2" stroke-linecap="round" stroke-linejoin="round"/>
<path d="M18 15.4542V10.3528H13.3636" stroke="white" stroke-width="2" stroke-linecap="round" stroke-linejoin="round"/>
<path d="M16.0605 6.1017C15.6686 4.88314 15.0025 3.79368 14.1244 2.93497C13.2463 2.07626 12.1849 1.47628 11.0391 1.19102C9.89323 0.905767 8.70042 0.944529 7.5719 1.30369C6.44338 1.66285 5.41594 2.33071 4.58545 3.24494L1 6.95192M18 10.3528L14.4145 14.0598C13.5841 14.974 12.5566 15.6419 11.4281 16.001C10.2996 16.3602 9.10676 16.399 7.96095 16.1137C6.81513 15.8285 5.75366 15.2285 4.87559 14.3698C3.99751 13.5111 3.33145 12.4216 2.93955 11.203" stroke="white" stroke-width="2" stroke-linecap="round" stroke-linejoin="round"/>
</svg>
